<?xml version="1.0" encoding="iso-8859-1"?>
<!-- Generator: Adobe Illustrator 19.0.0, SVG Export Plug-In . SVG Version: 6.00 Build 0)  -->
<svg xmlns="http://www.w3.org/2000/svg" xmlns:xlink="http://www.w3.org/1999/xlink" version="1.1" id="Layer_1" x="0px" y="0px" viewBox="0 0 512 512" style="enable-background:new 0 0 512 512;" xml:space="preserve" width="512px" height="512px">
<g>
	<g>
		<path d="M211.703,367.945c-6.81-1.837-13.805,2.183-15.645,8.983c-2.916,10.781-8.66,20.683-16.612,28.634    c-12.155,12.156-28.317,18.851-45.509,18.851c-17.193,0-33.353-6.694-45.51-18.851c-12.156-12.155-18.851-28.317-18.851-45.51    c0-17.191,6.694-33.352,18.851-45.508c22.523-22.522,58.675-25.108,84.09-6.016c5.637,4.23,13.632,3.093,17.861-2.539    c4.23-5.633,3.095-13.63-2.538-17.861c-35.513-26.672-86.004-23.071-117.451,8.377c-16.974,16.974-26.323,39.544-26.323,63.548    c0,24.006,9.349,46.576,26.323,63.549c16.975,16.973,39.544,26.323,63.549,26.323c24.004,0,46.575-9.349,63.547-26.323    c11.099-11.098,19.123-24.934,23.201-40.012C222.524,376.789,218.504,369.786,211.703,367.945z" fill="#377de7"/>
	</g>
</g>
<g>
	<g>
		<path d="M219.278,331.821l-0.029-0.089c-2.227-6.684-9.44-10.248-16.121-8.024c-6.683,2.229-10.281,9.497-8.053,16.181    c1.782,5.343,6.759,8.725,12.1,8.725c1.337,0,2.697-0.212,4.035-0.658C217.893,345.728,221.505,338.504,219.278,331.821z" fill="#377de7"/>
	</g>
</g>
<g>
	<g>
		<path d="M508.264,130.047l-45.099-45.099l9.019-9.019c2.393-2.392,3.737-5.637,3.737-9.02c0-3.383-1.344-6.627-3.736-9.02    l-36.081-36.083c-2.393-2.392-5.637-3.736-9.02-3.736c-3.383,0-6.628,1.344-9.02,3.736l-45.047,45.048    c-4.981,4.981-4.981,13.058,0,18.041c4.983,4.98,13.057,4.98,18.041,0l36.026-36.027l18.041,18.041l-9.02,9.018    c-2.392,2.392-3.736,5.637-3.736,9.02c0,3.383,1.344,6.627,3.736,9.02l45.099,45.099l-18.04,18.04l-45.099-45.099    c-4.983-4.98-13.057-4.98-18.041,0l-36.079,36.079c-4.981,4.981-4.981,13.058,0,18.041l27.059,27.059l-18.04,18.04l-27.059-27.059    c-4.983-4.98-13.057-4.98-18.041,0L226.738,285.295c-4.253,4.254-4.957,10.9-1.689,15.95c27.553,42.582,21.48,99.56-14.441,135.48    c-20.479,20.479-47.708,31.755-76.669,31.755c-28.963,0-56.192-11.278-76.669-31.757c-20.48-20.477-31.758-47.706-31.758-76.669    c0-28.961,11.278-56.19,31.758-76.669c35.92-35.922,92.897-41.995,135.479-14.441c5.049,3.267,11.695,2.564,15.95-1.689    l149.056-149.056c4.981-4.981,4.981-13.058,0-18.041c-4.982-4.98-13.057-4.98-18.041,0L197.651,242.22    c-23.415-12.646-50.421-18.101-77.138-15.431c-30.62,3.065-59.488,16.758-81.285,38.555C13.931,290.642,0,324.277,0,360.053    c0,35.777,13.931,69.412,39.229,94.71c26.112,26.112,60.41,39.166,94.71,39.166c34.298,0,68.597-13.055,94.709-39.166    c21.798-21.798,35.489-50.666,38.555-81.285c2.675-26.709-2.782-53.72-15.431-77.138l85.115-85.115l27.059,27.059    c4.982,4.98,13.057,4.98,18.041,0l36.079-36.079c4.981-4.981,4.981-13.058,0-18.041l-27.059-27.059l18.04-18.04l45.099,45.099    c4.982,4.98,13.057,4.98,18.041,0l36.079-36.079C513.245,143.106,513.245,135.028,508.264,130.047z" fill="#377de7"/>
	</g>
</g>
<g>
</g>
<g>
</g>
<g>
</g>
<g>
</g>
<g>
</g>
<g>
</g>
<g>
</g>
<g>
</g>
<g>
</g>
<g>
</g>
<g>
</g>
<g>
</g>
<g>
</g>
<g>
</g>
<g>
</g>
</svg>
